<svg xmlns="http://www.w3.org/2000/svg" viewBox="0 0 523.35 546.41"><title>inspiration</title><g id="background"><path d="M51.06,414.23a22.35,22.35,0,0,1-10.8-9.56,19.59,19.59,0,0,1-2.44-7.35c-.58-5.14,1.72-11.95,8.44-10.89a.76.76,0,0,0,1-.72,7,7,0,0,1,6.39-7,.76.76,0,0,0,.53-.93c-3.34-8.82-10.06-40.37,7-39.1,12.38.91,22.54,15,27.06,25.32l1.3-.76c-1.15-1.95-2.78-4.82-2.5-7.16.42-3.58,4-8.81,8.28-5.06a.75.75,0,0,0,1.25-.73c-.49-2-1.32-4.64-1.06-6.66.44-3.5,3-8.75,7.81-5.94a.76.76,0,0,0,1.1-.85c-1-4,1.2-7.71,4.75-9.51,3.92-2,8.37-.62,11.76,1.75,5.5,3.86,7.94,10.38,10.21,16.43a.75.75,0,0,0,1.44-.4c-1.57-6.76,6.66-6.32,9.69-4.59a21,21,0,0,1,4.51,3.8,34.67,34.67,0,0,1,6.86,11c.35.88,1.8.5,1.44-.4-2.6-6.47-7.6-15-14.87-17-4.91-1.35-10.33,2.14-9.07,7.53l1.44-.4c-3.17-8.49-7.75-19.19-18.15-20.2-6.91-.67-13.19,5.34-11.46,12.33l1.1-.85a6.25,6.25,0,0,0-8,1.42c-3.22,3.53-2,8.76-1,12.88l1.26-.73a6.29,6.29,0,0,0-8.85.64c-3.64,3.81-1.58,9.5.71,13.4.5.85,1.67.1,1.3-.76-4.72-10.77-15.36-25.11-28.26-26.13C46.84,336,47.93,357,49.39,366.16a57.78,57.78,0,0,0,1.32,6.11c.34,1.27,1.9,4,1.24,5.22-.48.9-3.66,1.91-4.57,3.13-1.47,2-1,3.29-3,4.17-2.2,1-4.15,1-5.9,3.09-8,9.57,2.9,23.72,11.77,27.65.88.39,1.64-.9.76-1.3Z" transform="translate(-27.31 -29.29)" style="fill:#e8e8e8"/><path d="M393.55,364.3c.79-6.2,3.72-17.11,12.34-13.66a.76.76,0,0,0,.92-.53c1.93-4.81,4.19-10,8-13.65a13.54,13.54,0,0,1,8.35-4c1.69-.18,3.53.15,5-.89,1.34-.92,2.07-2.68,2.87-4a65.18,65.18,0,0,1,5.42-7.78,28.91,28.91,0,0,1,7-6.43c4.55-2.75,13.19-2.22,12.45,5.24-.09.91,1.19.92,1.48.2,2.8-7.06,8.89-14.12,17.08-14.29,7.57-.16,13.06,5.85,15.68,12.4,5.41,13.54-1.53,28-3.18,41.66-.11,1,1.39,1,1.5,0,2-16.17,11.32-35.7-1.57-49.85-10.81-11.87-26-2.87-31,9.68l1.47.2c.78-7.91-8.32-10-14.05-6.93-4.47,2.39-7.92,6.63-10.79,10.7-2.23,3.17-3.79,7.32-7.85,8.57-1.84.56-3.74.16-5.64.88a18.37,18.37,0,0,0-8.06,6.8,39.6,39.6,0,0,0-3.46,5.95c-.92,1.92-1.07,3.72-3.09,4.09-3.26.59-5.66.33-8.21,3.1-3.1,3.39-3.69,8.22-4.25,12.58-.12.95,1.38.94,1.5,0Z" transform="translate(-27.31 -29.29)" style="fill:#e8e8e8"/><path d="M493.93,334.38c.79-7.46,10.13-8.64,13.12-1.93a.76.76,0,0,0,1.3,0c3.31-5.69,9.38-11.36,16.35-10.63,8.68.91,7.93,11.46,7.3,18.06A106.19,106.19,0,0,1,522.29,375c-.41.87.88,1.63,1.29.76A108.7,108.7,0,0,0,532,350.53c1.37-6.93,3.18-15.51,1.34-22.45-4.11-15.46-21-5.38-26.25,3.62h1.3c-3.71-8.31-15-6.19-15.92,2.68-.1,1,1.4.95,1.5,0Z" transform="translate(-27.31 -29.29)" style="fill:#e8e8e8"/><path d="M526.88,366.39a20.1,20.1,0,0,1,2.7-3.39q4.27-4.54,7.43,2.24c-.32.74.52,1.56,1.18.91,1.34-1.34,3.08-3.29,5.1-3.6,5.74-.88,6,6.07,5.66,9.26a27.36,27.36,0,0,1-3.7,10.59c-.47.85.83,1.61,1.29.76,3-5.51,6-13.13,2.67-19.21-3-5.58-8.74-2.18-12.09,1.14l1.18.91a4.43,4.43,0,0,0-2.78-6.26c-4.41-1.36-7.72,2.76-9.93,5.89-.56.79.74,1.54,1.29.76Z" transform="translate(-27.31 -29.29)" style="fill:#e8e8e8"/><path d="M407.43,415.13a37.51,37.51,0,0,1,3.64-11,35,35,0,0,1,2.9-4.61,23,23,0,0,1,1.9-2.4q1.69-2.71,5.2-1l1.17.91a73.09,73.09,0,0,1,24.92-28.92c1.82-1.22,3.66-3.44,4.79.88.29,1.09-.7,3.3-.95,4.36q-1.14,4.77-2.65,9.44a125.35,125.35,0,0,1-9.13,21.08c-.46.85.83,1.6,1.29.76a24.09,24.09,0,0,1,4.56-6.42l1.89-1.38,3.27,1.85c.11.6-1.71,3.68-2,4.25-.4.87.89,1.64,1.3.76,1.13-2.43,5.58-8.36.72-9.17-5.17-.86-9,5.71-11,9.35l1.29.76c2.44-4.49,18.72-39.08,11.28-40.26-2.49-.4-5.5,2.48-7.31,3.78a73.81,73.81,0,0,0-9.07,7.68A75.17,75.17,0,0,0,421,396.27c-.35.72.58,1.6,1.18.91,2.94-3.38-2.08-5.36-4.92-3.51-6.39,4.17-10,14-11.22,21.06-.17.94,1.27,1.35,1.44.4Z" transform="translate(-27.31 -29.29)" style="fill:#e8e8e8"/><path d="M457.54,421.49a21.21,21.21,0,0,1,8-12.55l-1.28-.53.19,5.16c0,.69,1.07,1.1,1.4.38a86.21,86.21,0,0,1,7.46-13.2,81.4,81.4,0,0,1,5.06-6.5c.92-1.07,1.87-2.1,2.84-3.12.39-.41.78-.81,1.18-1.2.72-1.12,1.31-.75,1.75,1.09a.76.76,0,0,0,1.26.73c1.67-1.73,3.38-3.42,5.2-5,1-.9,4.16-4.55,5.52-4.34,4.86.76.19,10.18-.75,12.72A95,95,0,0,1,482.94,418c-.57.78.73,1.53,1.29.75,7-9.56,14.41-22.25,15.88-34.26,1.36-11.1-14.06,4.45-15.78,6.24l1.25.73c.44-1.3.87-3-.48-3.91-1.91-1.25-3.85,1.41-5,2.56a83.91,83.91,0,0,0-15.6,23.12l1.4.38-.19-5.16a.76.76,0,0,0-1.28-.53,22.34,22.34,0,0,0-8.38,13.21c-.21.94,1.23,1.34,1.45.4Z" transform="translate(-27.31 -29.29)" style="fill:#e8e8e8"/><path d="M488.8,411.46a17,17,0,0,1,2.25-2.31c.08-.07,4.63-3.53,4.13-.85a.75.75,0,0,0,1.25.73,35.79,35.79,0,0,1,5.12-4.22c.55-.37,1.95-1.62,2.66-1.59l3.2,1.75a22.74,22.74,0,0,1-1,2.51A44.07,44.07,0,0,1,498.62,419c-.65.71.41,1.77,1.06,1.06a47.09,47.09,0,0,0,7.12-10c1-1.94,3.15-5.4,2-7.75-2.41-5-11.44,3.7-13.45,5.67l1.26.73c.26-1.42-.25-2.91-1.92-3.11-2.52-.29-5.58,3.11-7,4.81-.6.74.45,1.8,1.06,1.06Z" transform="translate(-27.31 -29.29)" style="fill:#e8e8e8"/><path d="M78.41,479.23c-7.55-4.45-15.14-9-21.9-14.57a65.54,65.54,0,0,1-8.71-8.6c-1.38-1.67-3.49-4-4.32-6.08-1.22-1.39-1.18-3,.11-4.69a14.93,14.93,0,0,1,3.35,2.23c.73.6,1.79-.4,1.06-1.06-4.82-4.3-9.74-8.78-13.14-14.34-1.11-1.82-4.91-8.28-3.67-10.48s9.17,4.26,10.27,5.06Q61,441,79.19,456.9c.73.64,1.79-.42,1.06-1.06q-12.57-10.92-25.72-21.15Q48.8,430.27,43,426c-3.86-2.84-7.54-5.87-12.41-6.53a.76.76,0,0,0-.95.72c.5,11.68,9.11,20,17.32,27.36L48,446.46a19.18,19.18,0,0,0-6.47-3.53.77.77,0,0,0-.93.52c-2.33,6.95,8,16.18,12.52,20.26,7.39,6.65,16,11.78,24.54,16.81a.75.75,0,0,0,.75-1.29Z" transform="translate(-27.31 -29.29)" style="fill:#e8e8e8"/><path d="M70.47,447.78c-1.15-1.22-4-6.33-.24-5.71.88.14,2.38,1.38,3.07,1.81.52.33,1.35-.22,1.11-.84-1-1.32-.6-2.16,1.31-2.54q1.75-2.37,3.27-.07a28.73,28.73,0,0,1,4.18,3.47c2.76,2.36,5.42,4.81,8,7.32.7.67,1.76-.39,1.06-1.06-3-2.93-6.18-5.77-9.42-8.49-1.91-1.6-4.81-4.92-7.4-5.58-4.55-1.15-3.39,5.1-2.49,7.34l1.1-.84c-1.43-.9-5.82-4.62-7.65-2.65-2.13,2.29,1.56,7.37,3,8.9.66.71,1.72-.35,1.06-1.06Z" transform="translate(-27.31 -29.29)" style="fill:#e8e8e8"/><path d="M121.57,434.35a49.68,49.68,0,0,1-20-16.43l-.85,1.1a8.35,8.35,0,0,1,4.86,2.58c.72.65,1.77-.39,1.06-1.06-10.26-9.82-23.42-21.47-26.92-35.76l-.92.92c17.41,3.56,28.24,18.42,40.43,30,.7.66,1.76-.4,1.06-1.06-12.39-11.77-23.4-26.77-41.1-30.39a.76.76,0,0,0-.92.92c3.57,14.59,16.88,26.45,27.31,36.43l1.06-1.06a11.86,11.86,0,0,0-5.52-3c-.59-.15-1.25.54-.85,1.1a51.37,51.37,0,0,0,20.52,17c.87.4,1.64-.89.76-1.3Z" transform="translate(-27.31 -29.29)" style="fill:#e8e8e8"/><path d="M118.42,411.64c-.55-.93-2.32-4-1.76-5.16,1.06-2.3,3.09.22,4.21.85.45.25,1.19-.06,1.13-.65a20.51,20.51,0,0,1-.5-4.38q-.7-1.94,1.8-2.34a23.93,23.93,0,0,1,2.32,1.67,26,26,0,0,1,5.77,6.81c.5.82,1.8.07,1.3-.76a28.1,28.1,0,0,0-4.49-5.75c-1.4-1.35-3.59-3.54-5.59-3.88-4.42-.75-2.36,6.42-2.11,8.63l1.12-.65c-1.6-.89-4.37-3.74-6.12-1.3-1.43,2,.61,5.93,1.63,7.66a.75.75,0,0,0,1.29-.75Z" transform="translate(-27.31 -29.29)" style="fill:#e8e8e8"/><path d="M66.39,521.37C80,536.22,94,551.2,112.9,559.15c.89.38,1.28-1.07.4-1.44-18.6-7.83-32.5-22.78-45.85-37.4-.65-.72-1.71.35-1.06,1.06Z" transform="translate(-27.31 -29.29)" style="fill:#e8e8e8"/><path d="M66.82,517.76c19.43,3.49,38.46-3.19,55.93-11.21a237.42,237.42,0,0,0,49.86-31c.75-.61-.31-1.66-1.06-1.06a236.25,236.25,0,0,1-46.39,29.29c-17.89,8.54-37.82,16.15-57.95,12.55-.94-.17-1.35,1.27-.39,1.44Z" transform="translate(-27.31 -29.29)" style="fill:#e8e8e8"/><path d="M115.12,561.18a193.86,193.86,0,0,0,94.64-42.69c.74-.62-.32-1.68-1.06-1.07a192.36,192.36,0,0,1-94,42.31c-1,.15-.55,1.59.4,1.45Z" transform="translate(-27.31 -29.29)" style="fill:#e8e8e8"/><path d="M175.9,477.56c11.65,12.18,22.2,26.38,39.52,30.08.94.2,1.35-1.24.4-1.44-17-3.64-27.44-17.76-38.86-29.71-.66-.69-1.72.37-1.06,1.07Z" transform="translate(-27.31 -29.29)" style="fill:#e8e8e8"/><path d="M96.73,534l10.89,8.11c.78.57,1.53-.73.76-1.3l-10.89-8.1c-.78-.58-1.53.72-.76,1.29Z" transform="translate(-27.31 -29.29)" style="fill:#e8e8e8"/><path d="M100.43,524.84a108.09,108.09,0,0,0,25,18.39c.86.46,1.61-.83.76-1.29a107.05,107.05,0,0,1-24.69-18.16c-.68-.68-1.75.38-1.06,1.06Z" transform="translate(-27.31 -29.29)" style="fill:#e8e8e8"/><path d="M116.14,518.92A271,271,0,0,0,136.27,539c.72.65,1.78-.41,1.06-1.06a271,271,0,0,1-20.13-20.12c-.65-.72-1.7.34-1.06,1.06Z" transform="translate(-27.31 -29.29)" style="fill:#e8e8e8"/><path d="M129.67,519.2a119.1,119.1,0,0,0,19.41,14.14.75.75,0,0,0,.76-1.29,117.4,117.4,0,0,1-19.11-13.91c-.71-.64-1.78.42-1.06,1.06Z" transform="translate(-27.31 -29.29)" style="fill:#e8e8e8"/><path d="M135.72,509.12a123,123,0,0,0,27.1,21.46.75.75,0,0,0,.76-1.29,121.49,121.49,0,0,1-26.8-21.23c-.67-.7-1.73.36-1.06,1.06Z" transform="translate(-27.31 -29.29)" style="fill:#e8e8e8"/><path d="M154.55,552.44a125.86,125.86,0,0,0,29.37,18.48c4.64,2.07,9.63,4.47,14.77,4.76,5.39.3,11-2,16-3.71a173.69,173.69,0,0,0,59.13-34.26c.73-.64-.34-1.7-1.06-1.06a172.08,172.08,0,0,1-55.23,32.75,107.32,107.32,0,0,1-13.9,4.29c-7,1.47-13.49-1.59-19.75-4.42a123.48,123.48,0,0,1-28.28-17.9c-.74-.61-1.8.45-1.06,1.07Z" transform="translate(-27.31 -29.29)" style="fill:#e8e8e8"/><path d="M205.47,502.1l7.8-7.46c2.43-2.33,3.54-4.4,8.09-2.25,1.19.56,2.33,2,3.33,2.88q7.13,6,14.77,11.42a211.63,211.63,0,0,0,35.16,19.95c.87.39,1.63-.9.75-1.3a211,211,0,0,1-40.84-24.1q-5.19-3.93-10.12-8.18c-1.52-1.3-3.92-4.56-6.33-4.25-1.79.23-3.37,2.37-4.57,3.52L204.4,501c-.69.67.37,1.73,1.07,1.06Z" transform="translate(-27.31 -29.29)" style="fill:#e8e8e8"/><path d="M178.23,550.38q10,5.13,19.68,10.71a.75.75,0,0,0,.76-1.3Q189,554.21,179,549.08c-.86-.44-1.62.86-.76,1.3Z" transform="translate(-27.31 -29.29)" style="fill:#e8e8e8"/><path d="M188,548.36a58.61,58.61,0,0,0,18.68,10.14c.92.3,1.32-1.15.4-1.45a56.41,56.41,0,0,1-18-9.75c-.75-.6-1.82.45-1.06,1.06Z" transform="translate(-27.31 -29.29)" style="fill:#e8e8e8"/><path d="M193.78,536.77A76.8,76.8,0,0,0,225,553.45a.75.75,0,0,0,.4-1.45,75.1,75.1,0,0,1-30.59-16.29c-.72-.64-1.78.42-1.06,1.06Z" transform="translate(-27.31 -29.29)" style="fill:#e8e8e8"/><path d="M207.5,530.54l17.32,14.32c.74.61,1.8-.45,1.06-1.06l-17.31-14.32c-.74-.61-1.81.44-1.07,1.06Z" transform="translate(-27.31 -29.29)" style="fill:#e8e8e8"/><path d="M221.47,528.34l12.77,9.06c.79.56,1.54-.74.75-1.29l-12.76-9.06c-.79-.56-1.54.74-.76,1.29Z" transform="translate(-27.31 -29.29)" style="fill:#e8e8e8"/><path d="M339.79,526.41a202.07,202.07,0,0,0,29.32-17.19c9.19-6.52,17.19-14.88,26.8-20.74.82-.51.06-1.8-.76-1.3-9.62,5.88-17.6,14.22-26.8,20.74A201.6,201.6,0,0,1,339,525.12c-.87.42-.11,1.71.76,1.29Z" transform="translate(-27.31 -29.29)" style="fill:#e8e8e8"/><path d="M341.31,528.94a197.59,197.59,0,0,0,101.51,34c1,.05,1-1.45,0-1.5a196.14,196.14,0,0,1-100.75-33.78c-.8-.55-1.55.75-.76,1.29Z" transform="translate(-27.31 -29.29)" style="fill:#e8e8e8"/><path d="M119.15,475.3c-.24-6.94-.08-14.34,6.2-18.76,5-3.51,15-6.47,19.8-1.66,3,3,3.76,5.85,1.42,9.37-.72,1.08-1.39,1.61-1.68,3-.5,2.4.47,4.7-.08,7.12-1.18,5.18-6.33,6.18-11,5.68-1-.1-1,1.4,0,1.5,6.72.72,13.35-2.21,12.75-9.81-.22-2.81.46-4.39,2-6.88.25-.41,1-.54,1.16-1a6.34,6.34,0,0,0,.37-1.88c0-2.77-2.15-7-4.25-8.76-5.22-4.43-14.76-1.78-20,1.3-7.73,4.57-8.49,12.62-8.2,20.85,0,1,1.53,1,1.5,0Z" transform="translate(-27.31 -29.29)" style="fill:#e8e8e8"/><path d="M117.89,473.89a13.36,13.36,0,0,0,14.25,8.76c.94-.12,1-1.63,0-1.5a11.91,11.91,0,0,1-12.81-7.66c-.32-.9-1.77-.51-1.44.4Z" transform="translate(-27.31 -29.29)" style="fill:#e8e8e8"/><path d="M132.38,476c-4.33-1.71-4-6.81-2.16-10.22,1.22-2.3,2.23-4,5.42-3.77a10,10,0,0,1,4.2,1.83c.82.53,1.57-.77.76-1.29-2-1.3-4.91-2.7-7.38-2.09-2.32.57-3.85,3.5-4.76,5.48-1.94,4.27-1.22,9.64,3.52,11.51.9.35,1.29-1.1.4-1.45Z" transform="translate(-27.31 -29.29)" style="fill:#e8e8e8"/><path d="M136.47,471.82c-1.76-.65.18-2.68,1-3.12a41.28,41.28,0,0,1,4.29-1.79c.88-.36.5-1.81-.4-1.45-2.09.85-5.32,1.55-6.56,3.64a2.82,2.82,0,0,0,1.29,4.16c.91.33,1.3-1.12.4-1.44Z" transform="translate(-27.31 -29.29)" style="fill:#e8e8e8"/><path d="M139.14,455.34a14.84,14.84,0,0,0-16.44,10c-.3.92,1.15,1.32,1.45.4a13.3,13.3,0,0,1,14.59-8.95c.95.15,1.36-1.3.4-1.45Z" transform="translate(-27.31 -29.29)" style="fill:#e8e8e8"/><path d="M393.38,489.65c9.72,9.73,26.08,12.49,38.87,15.82a403.57,403.57,0,0,0,48.47,9.45c1,.13.95-1.37,0-1.5a399.21,399.21,0,0,1-46.24-8.92c-7.33-1.88-14.62-3.95-21.83-6.27-6.68-2.15-13.16-4.58-18.21-9.64-.69-.68-1.75.38-1.06,1.06Z" transform="translate(-27.31 -29.29)" style="fill:#e8e8e8"/><path d="M479.66,515.31A213.75,213.75,0,0,1,444,556.5c-.72.64.34,1.7,1.06,1.06A215.12,215.12,0,0,0,481,516.07c.54-.81-.76-1.56-1.3-.76Z" transform="translate(-27.31 -29.29)" style="fill:#e8e8e8"/><path d="M384.27,506.58q-7.09,6.45-13.52,13.53c-.65.71.41,1.78,1.06,1.06q6.44-7.09,13.52-13.52c.72-.66-.35-1.71-1.06-1.07Z" transform="translate(-27.31 -29.29)" style="fill:#e8e8e8"/><path d="M399.78,508.85l-20.06,20.78c-.67.7.39,1.76,1.06,1.06l20.06-20.78c.67-.7-.39-1.76-1.06-1.06Z" transform="translate(-27.31 -29.29)" style="fill:#e8e8e8"/><path d="M403.73,515.1l-15,15.46c-.67.69.39,1.75,1.06,1.06l15.05-15.45c.67-.7-.39-1.76-1.07-1.07Z" transform="translate(-27.31 -29.29)" style="fill:#e8e8e8"/><path d="M421.85,512.47a290.13,290.13,0,0,1-28.69,28.28c-.73.62.33,1.68,1.06,1.06a289,289,0,0,0,28.69-28.28c.64-.72-.42-1.78-1.06-1.06Z" transform="translate(-27.31 -29.29)" style="fill:#e8e8e8"/><path d="M429.56,510a.75.75,0,0,0,0-1.5.75.75,0,0,0,0,1.5Z" transform="translate(-27.31 -29.29)" style="fill:#e8e8e8"/><path d="M431.28,488.17a.75.75,0,0,0,0-1.5.75.75,0,0,0,0,1.5Z" transform="translate(-27.31 -29.29)" style="fill:#e8e8e8"/><path d="M379.7,475.41c-5.84-8.22,7.07-21.84,15.66-19.58,3.42.9,8,2.91,9.89,6,2.64,4.23-.95,13-5.75,14.59-.91.3-.52,1.75.4,1.45,4.73-1.57,8.83-9.21,7.78-14.05-1.09-5.07-6.74-7.78-11.22-9.2-10.22-3.25-24.94,11.86-18.06,21.55.56.78,1.86,0,1.3-.76Z" transform="translate(-27.31 -29.29)" style="fill:#e8e8e8"/><path d="M395.89,461.18c-5.09-1.06-11.9,1.2-14.54,6-2,3.6-.56,8.77,3.75,9.69.94.2,1.34-1.25.4-1.45-4.54-1-4.16-6.53-1.54-9.2a13.34,13.34,0,0,1,11.53-3.55c.95.2,1.35-1.25.4-1.45Z" transform="translate(-27.31 -29.29)" style="fill:#e8e8e8"/><path d="M389.92,469.49c0-2.79,3.29-3.92,5.45-2.63a5.85,5.85,0,0,1,2.13,2.39,6.61,6.61,0,0,1,.56,1.54c.25,1.12.35,3.79-1.91,3.29-.94-.2-1.34,1.24-.4,1.45a3.23,3.23,0,0,0,3.93-3.06,7.72,7.72,0,0,0-2.57-6.18c-3.07-2.72-8.68-1.38-8.69,3.2a.75.75,0,0,0,1.5,0Z" transform="translate(-27.31 -29.29)" style="fill:#e8e8e8"/><path d="M387.57,471.87a6.91,6.91,0,0,0,5.93,1.85c.95-.14.55-1.59-.4-1.45a5.26,5.26,0,0,1-4.46-1.46c-.7-.67-1.76.38-1.07,1.06Z" transform="translate(-27.31 -29.29)" style="fill:#e8e8e8"/><path d="M372.69,476.68a21.78,21.78,0,0,0,23.24,2.07c.86-.43.11-1.72-.76-1.29a20.29,20.29,0,0,1-21.72-2.07c-.77-.59-1.51.71-.76,1.29Z" transform="translate(-27.31 -29.29)" style="fill:#e8e8e8"/><path d="M418.93,466.25c-1.06-13.73,24.74-10.77,25.72,2.1.86,11.31-13.17,15.94-20.07,7.45-.6-.75-1.66.32-1.06,1.06,8.61,10.6,25.77,2.44,22.2-11.05-3.23-12.23-29.47-14.72-28.29.44.08,1,1.58,1,1.5,0Z" transform="translate(-27.31 -29.29)" style="fill:#e8e8e8"/><path d="M431,466a4.48,4.48,0,0,0,2.15-4,.75.75,0,0,0-.95-.72c-2.83.89-6.41,2.13-7.33,5.32-.67,2.31.3,5.05,2.75,5.7a.75.75,0,0,0,.4-1.44c-2.08-.55-2.26-3.3-1.23-4.87,1.24-1.89,3.78-2.63,5.81-3.27l-.95-.72a3,3,0,0,1-1.4,2.75c-.81.53-.06,1.83.75,1.29Z" transform="translate(-27.31 -29.29)" style="fill:#e8e8e8"/><path d="M437.81,468.5a3,3,0,0,1-2.27,5.43c-1-.17-1.35,1.27-.4,1.45a4.48,4.48,0,0,0,3.43-8.17c-.8-.55-1.55.75-.76,1.29Z" transform="translate(-27.31 -29.29)" style="fill:#e8e8e8"/><path d="M432.46,472.61a4.2,4.2,0,0,1-3.49,5.17c-1,.1-1,1.6,0,1.5a5.71,5.71,0,0,0,4.93-7.07.75.75,0,0,0-1.44.4Z" transform="translate(-27.31 -29.29)" style="fill:#e8e8e8"/><path d="M27.67,186.79c23.25,14.37,47.13,29.08,74,35.69,28.46,7,58.4,2.81,87-1.12,60.52-8.31,120.08-22.89,180.91-29.08,34.4-3.5,69.12-4.14,103.43.59.94.13,1.35-1.31.39-1.45-58.68-8.08-117.7-.37-175.63,9.76-29.57,5.17-59,11-88.7,15.65-30.28,4.79-62.5,10.69-93.18,6.8-32.15-4.09-60.4-21.43-87.43-38.14-.83-.51-1.58.79-.76,1.3Z" transform="translate(-27.31 -29.29)" style="fill:#e8e8e8"/><path d="M167.37,147.49c42.31,16,88.41,10.7,131.5.92,23.2-5.27,46.1-11.8,69.32-17a474.54,474.54,0,0,1,155.14-9.06c1,.11,1-1.4,0-1.5a478.33,478.33,0,0,0-140.43,6c-46.55,9-91.73,25.6-139.29,28.87-25.67,1.76-51.64-.49-75.84-9.62-.91-.34-1.3,1.11-.4,1.44Z" transform="translate(-27.31 -29.29)" style="fill:#e8e8e8"/><path d="M40.47,76.64C56.81,86.23,75.58,89.29,94.3,89.55c21.07.29,42.26-2.16,63.14-4.71,44.27-5.41,88.13-13.7,132.44-18.85a621,621,0,0,1,74.65-4.61.75.75,0,0,0,0-1.5c-86.79-.4-171,24.43-257.38,28-22.61.93-46-.81-65.92-12.51a.75.75,0,0,0-.76,1.3Z" transform="translate(-27.31 -29.29)" style="fill:#e8e8e8"/><path d="M269,43.76c66.06,5.73,131.71-7.62,197.74-6.58a334.92,334.92,0,0,1,57.49,5.56c.95.18,1.35-1.27.4-1.45-65.69-12.52-132.23-.49-198.24,2A461.79,461.79,0,0,1,269,42.26c-1-.09-1,1.42,0,1.5Z" transform="translate(-27.31 -29.29)" style="fill:#e8e8e8"/><path d="M428.22,175.61a3.29,3.29,0,0,0,1.53-5.26c-1.58-1.73-4.52-.93-5.39,1.1-1,2.34,1.19,4.87,3.61,4.63,2.64-.25,3.77-3.22,2.74-5.42a1.51,1.51,0,0,0-2-.54,1.53,1.53,0,0,0-.54,2,.83.83,0,0,1-.35.92.56.56,0,0,1-.55-.2c-.15-.17-.13-.17-.11-.28,0,.17.11-.11,0-.05s.39-.19.26-.15c.23-.07,0,0,.27,0,0,0-.18,0-.17-.07s.07.24,0,0c0,.07,0,.46,0,.26,0,.24,0,0-.11.23.08-.1.31-.15,0-.07a1.5,1.5,0,0,0,.79,2.9Z" transform="translate(-27.31 -29.29)" style="fill:#ec615b"/><path d="M445.75,174.16c-.09-.16-.11-.16-.05,0-.05-.17-.05-.17,0,0-.13.36.14-.2,0,.08a1.28,1.28,0,0,1,.15-.25c-.08.11-.06.1.05,0l-.07.05c.16-.08.17-.1,0,0,.17,0,.18,0,0,0s-.16,0,0,0c-.08,0-.35-.21-.1,0-.1-.14-.1-.13,0,0,0-.14-.05-.16,0-.05a1.39,1.39,0,0,1,.06.19c0-.17,0-.16,0,0s0,.18,0,0l0,.14c0,.16,0,.17,0,0a1.76,1.76,0,0,1-.14.23c.12-.21-.15.05,0-.07s.09,0-.08,0c.14,0,.12,0-.07,0s.07.06-.23,0-.2-.07-.08,0c-.15-.1-.18-.11-.1,0s-.32-.33-.2-.18c-.18-.23-.12-.2-.16-.37-.46-1.88-3.35-1.09-2.9.79a3.82,3.82,0,0,0,4.38,2.79,3.33,3.33,0,0,0,2.44-4,3,3,0,0,0-3.82-2.33c-1.72.63-2.93,2.93-1.73,4.56a1.55,1.55,0,0,0,2.06.54,1.5,1.5,0,0,0,.53-2.05Z" transform="translate(-27.31 -29.29)" style="fill:#ec615b"/><path d="M429.17,171.11l2.41-9a41.1,41.1,0,0,1,1.1-4.09,3.56,3.56,0,0,1,1.3-2.68c.45-1.19,1.23-1.41,2.31-.67,2,0,4.1.68,6.16.65a29.58,29.58,0,0,0,7.59-1.17l-.94-.73a149.74,149.74,0,0,1-3.93,19.35.75.75,0,0,0,1.45.4,152.46,152.46,0,0,0,4-19.75c.06-.49-.54-.84-1-.72a27,27,0,0,1-13,.52c-1.21-.25-2.71-1-3.89-.15s-1.65,4.86-2,6.19l-3.07,11.46a.75.75,0,0,0,1.45.4Z" transform="translate(-27.31 -29.29)" style="fill:#ec615b"/><path d="M484.77,200l.44-.74a.74.74,0,0,0,0-.76c-1.36-2.39-5-1-5.17,1.71s3.15,3.21,4.7,1.44.44-4.7-2-4c-2.13.59-1.64,3.35.41,3.68a.77.77,0,0,0,.73-.2c2.43-3.12,3.22-7.12,4.42-10.83l4.92-15.18c.3-.92-1.15-1.32-1.44-.4L488,186.34c-1.32,4.09-2.28,9.25-4.5,12.93-.5.83.8,1.58,1.3.76Z" transform="translate(-27.31 -29.29)" style="fill:#ec615b"/><path d="M493.13,178c.91.27,1.16.81.74,1.63l-.36,1.14a7.63,7.63,0,0,0-.27,1.24,4.61,4.61,0,0,0,.59,3.13,3,3,0,0,0,4.07,1,.75.75,0,0,0-.75-1.3c-1.59.92-2.49-1.07-2.46-2.31a14.42,14.42,0,0,1,.69-2.81,3.18,3.18,0,0,0-.68-3.05,1.79,1.79,0,0,0-2.87,2.07c.44.86,1.74.1,1.3-.76Z" transform="translate(-27.31 -29.29)" style="fill:#ec615b"/><path d="M366.78,99.31c1.55-1.67,1.21-4.77-1.09-5.62-2.09-.77-4.71.86-4.47,3.19s3.26,4,5.09,2.15a3.34,3.34,0,0,0,.94-2.89,2.5,2.5,0,0,0-.67-1.38c-.51-.44-1.58-.43-2.22-.56a.77.77,0,0,0-.85.35,3.61,3.61,0,0,0-.27,2.64.76.76,0,0,0,1.1.45,2.07,2.07,0,0,0,.49-3.15.75.75,0,0,0-1.06,0c-.82.72-1.7,1.91-.87,3a1.43,1.43,0,0,0,2.35,0c.57-.78-.73-1.53-1.3-.76.15-.21.21-.44.35-.65a3.66,3.66,0,0,1,.53-.51h-1.06a.54.54,0,0,1-.19.8l1.11.44a2,2,0,0,1,.12-1.49l-.85.35c.56.11,1.66,0,1.81.7a1.81,1.81,0,0,1-.38,1.47c-.95,1.16-2.72.05-2.69-1.27a1.86,1.86,0,0,1,2.6-1.4,2,2,0,0,1,.42,3.1c-.65.71.41,1.78,1.06,1.06Z" transform="translate(-27.31 -29.29)" style="fill:#ec615b"/><path d="M366.85,97.18,369.14,77c.11-1-1.4-1-1.5,0l-2.29,20.21c-.11.95,1.4.95,1.5,0Z" transform="translate(-27.31 -29.29)" style="fill:#ec615b"/><path d="M438.58,90.12c2.05-1.6,3.58-3.87,1.31-6A.77.77,0,0,0,439,84c-1.44.79-3.05,2-2.64,3.92a2.34,2.34,0,0,0,3.07,1.84c1.93-.59,2.51-3.86,3-5.4l4.93-15.09-1.26.33A10.59,10.59,0,0,0,457,71.81l-.85-1.11a58.17,58.17,0,0,0-5.09,13.79c-.63,2.94-.94,5.84,1.45,8a.77.77,0,0,0,.91.12,4.21,4.21,0,0,0,2.36-5.27.76.76,0,0,0-.73-.55,5.15,5.15,0,0,0-3.27,1.4c-.56.46,0,1.54.72,1.25l2.75-1.13-.92-.92-1.45,1a.75.75,0,0,0-.4,1.45,2.36,2.36,0,0,0,3.29-2c.08-.49-.33-1.17-.92-.93L452.12,88l.73,1.26c-.92.77-.17-5.07-.16-5.1.28-1.24.65-2.47,1-3.68a58.9,58.9,0,0,1,3.74-9c.27-.54-.19-1.33-.85-1.1a9.12,9.12,0,0,1-9.46-1.78.76.76,0,0,0-1.25.33l-3.37,10.33c-1.21,3.71-1.79,7.31-5,9.82-.76.59.3,1.64,1.06,1.06Z" transform="translate(-27.31 -29.29)" style="fill:#ec615b"/><path d="M375.24,165.41c-.24,0-.32-.11-.08.05-.08-.06-.14-.12,0,0a1.28,1.28,0,0,1-.14-.23c.1.22-.05-.21-.07-.31,0,.33.07-.39,0,0a1.25,1.25,0,0,1,.07-.26c-.06.17,0,0,0,0-.18.14,0,0,0,0s-.09.12-.16.1.24,0,.06,0,0,0,.06,0c-.11-.1.24.19.2.15l.18.25a.79.79,0,0,1,0,.13c-.07-.09,0,.15,0,.07s.2-.11,0-.05h-.07c.08,0-.18,0-.19,0s-.41-.13-.32-.09-.13-.08-.14-.1c-.17-.17.12.15,0,0s0,0,0,0,0,0,0,.14a1.54,1.54,0,0,0-1.5-1.5,1.52,1.52,0,0,0-1.5,1.5,3.3,3.3,0,0,0,1.7,2.63,3.87,3.87,0,0,0,2.85.35c2.39-.68,2.77-3.58,1.22-5.29a3.11,3.11,0,0,0-5.3.82c-.67,1.81.26,4.23,2.28,4.63a1.54,1.54,0,0,0,1.84-1.05,1.51,1.51,0,0,0-1-1.85Z" transform="translate(-27.31 -29.29)" style="fill:#461eb8"/><path d="M376.43,149.68l.08,14.39a.75.75,0,0,0,1.5,0l-.08-14.39a.75.75,0,0,0-1.5,0Z" transform="translate(-27.31 -29.29)" style="fill:#461eb8"/><path d="M400.16,46.32l.45,1.82a.76.76,0,0,0,.93.52c6.64-2.33-2.39-8.23-2.81-3a2.59,2.59,0,0,0,4,2.16c1.73-1.26,2.66-5.36,3.46-7.2l4.4-10.17-1.37-.18a8.12,8.12,0,0,0,11.49,4.44l-1-1C417.93,36.21,411.18,46,414,49.14c2.42,2.68,4.76-1,5-3.17a.75.75,0,0,0-.37-.65,2.55,2.55,0,0,0-3.25.1.75.75,0,0,0,.75,1.3l-1.3,0c-1,0-1,1.56,0,1.5,1.71-.09,3.86-1.29,1.91-2.91a.79.79,0,0,0-.9-.11l-.46.2.75,1.3c-.67.46-.24-2.56-.23-2.6a17,17,0,0,1,1.83-4.32A43.24,43.24,0,0,1,421,34.41c.45-.65-.41-1.34-1-1a6.59,6.59,0,0,1-9.28-3.55c-.2-.52-1.09-.83-1.37-.18l-4.09,9.45-1.89,4.35c-.39.91-1.2,4.55-1.72,2.46a.75.75,0,0,0-1.45.4Z" transform="translate(-27.31 -29.29)" style="fill:#461eb8"/><path d="M412.87,112.46a.75.75,0,0,0,0-1.5.75.75,0,0,0,0,1.5Z" transform="translate(-27.31 -29.29)" style="fill:#461eb8"/><path d="M412.3,112.46a.75.75,0,0,0,0-1.5.75.75,0,0,0,0,1.5Z" transform="translate(-27.31 -29.29)" style="fill:#461eb8"/><path d="M413.08,112.51a2.57,2.57,0,0,0-.37-4.49c-2.65-1-4,2.36-3.19,4.35a.79.79,0,0,0,.72.55c7.14.64,6-15.07,5.59-19-.09-1-1.59-1-1.5,0a43.91,43.91,0,0,1,.14,7.86,31.08,31.08,0,0,1-.71,5c-.25,1.09-.59,3.86-1.43,4.45s0,1.84.75,1.29Z" transform="translate(-27.31 -29.29)" style="fill:#461eb8"/><path d="M416.94,95c.33-.59,1-.08,1.23.21.55.6.34,1.4.19,2.12a15.93,15.93,0,0,0-.48,2.38,5.34,5.34,0,0,0,1.09,3.7,3.62,3.62,0,0,0,5.77-.14c.55-.8-.75-1.55-1.3-.76a2.12,2.12,0,0,1-3.25,0,4,4,0,0,1-.74-3.28c.23-1.44,1-3,.31-4.47s-3.15-2.26-4.11-.56c-.48.84.82,1.6,1.29.76Z" transform="translate(-27.31 -29.29)" style="fill:#461eb8"/><path d="M440.47,244.28c-.86-1.47-3.49-3-3.17-4.85.3-1.69,1.48-.83,2.14.07a8.75,8.75,0,0,1,1.47,3.5l.72-.95-2.87.09c-1,0-1,1.53,0,1.5l2.87-.09a.76.76,0,0,0,.72-1c-.37-1.9-2.92-7.8-5.67-5.17a3.51,3.51,0,0,0-.72,3.51c.59,1.66,2.35,2.61,3.21,4.1a.75.75,0,0,0,1.3-.76Z" transform="translate(-27.31 -29.29)" style="fill:#461eb8"/><path d="M441.39,238.38a154.67,154.67,0,0,1-6.82-19l-1.37.58c.88,1.47,7.14,14.66,10.05,8.48.41-.86-.89-1.63-1.3-.75-1.12,2.39-4.61-3.75-4.88-4.2l-2.57-4.29a.76.76,0,0,0-1.38.58,156.06,156.06,0,0,0,7,19.35c.38.89,1.67.12,1.29-.75Z" transform="translate(-27.31 -29.29)" style="fill:#461eb8"/><circle cx="57.2" cy="217.86" r="5.5" style="fill:#461eb8"/><circle cx="65.49" cy="85.21" r="2.8" style="fill:none;stroke:#461eb8;stroke-miterlimit:10;stroke-width:0.5px"/><circle cx="476.25" cy="61.84" r="4.06" style="fill:#461eb8"/><circle cx="131.46" cy="252.59" r="4.43" style="fill:#461eb8"/><circle cx="198.05" cy="71.07" r="3.7" style="fill:#461eb8"/><circle cx="194.88" cy="6.25" r="5.5" style="fill:none;stroke:#ec615b;stroke-miterlimit:10;stroke-width:0.5px"/><circle cx="77.78" cy="142.56" r="4.99" style="fill:#ec615b"/><circle cx="147.47" cy="209.66" r="2.7" style="fill:#ec615b"/><circle cx="118.14" cy="19.12" r="3.91" style="fill:#ec615b"/><circle cx="375.3" cy="189.74" r="3.66" style="fill:none;stroke:#ec615b;stroke-miterlimit:10;stroke-width:0.5px"/><circle cx="187.06" cy="149.69" r="4.38" style="fill:none;stroke:#ec615b;stroke-miterlimit:10;stroke-width:0.5px"/><circle cx="289.58" cy="61.26" r="3.47" style="fill:#ec615b"/></g><g id="guy"><g id="leg_right" data-name="leg right"><path d="M289.74,428.41c-.67,2-1.31,4.27-1.89,6.63a93.31,93.31,0,0,0-1.78,9.3,46.26,46.26,0,0,1,12.65,5.44,45.37,45.37,0,0,1,5.91,4.36c1.54,2.82,3.74,6.82,6.42,11.61,4.16,7.46,6.28,11.26,8.43,14.78,2.35,3.85,5.74,9.13,10.26,15.26a7.38,7.38,0,0,0,3.71-3.08c1.58-2.86.32-6.26-.23-7.8-3.84-10.8,1.85-2.05-5.31-20.19a304,304,0,0,0-13-28.43Z" transform="translate(-27.31 -29.29)"/><path d="M256,354.44l-7.06-.68a188.9,188.9,0,0,0-43.13-20.54,178.4,178.4,0,0,0-45.3-7.41c-5-.14-12.45-.09-20.32,3.87-2.75,1.38-8.3,4.26-12,10.43-.64,1.05-2.88,4.93-3.7,14.35-.61,7-1.69,19.43,5.09,32.79a57,57,0,0,0,10.17,13.88,76.41,76.41,0,0,0,18.66,14.3c18.83,10.86,28.25,16.3,41.11,21.87,16.53,7.16,30.06,11.41,57.12,19.92,9.23,2.9,16.88,5.18,22,6.7a33.66,33.66,0,0,0,2.8-4.7A34.86,34.86,0,0,0,284.73,447c1.07-11,3.71-21.75,5.46-32.64,3.95-24.59,8-24.95,6.45-32C294.72,373.76,286.11,363,256,354.44Z" transform="translate(-27.31 -29.29)" style="fill:#fff"/><path d="M130.34,336.73a62.2,62.2,0,0,0,1.54,15.69,73.91,73.91,0,0,0,9.75,21.85c9.58,14.29,44.54,47.38,103.9,57.5a206.32,206.32,0,0,0,41,2.8c-.35,2.71-.78,5.51-1.3,8.38a184.46,184.46,0,0,1-4.65,19.72c-5.45-1.05-13.85-2.81-24-5.45-30.25-7.91-49.7-17.32-88.59-36.14a95.64,95.64,0,0,1-28.3-19.95,55.69,55.69,0,0,1-10.82-15.21A54.85,54.85,0,0,1,124,365.83,58.22,58.22,0,0,1,130.34,336.73Z" transform="translate(-27.31 -29.29)" style="fill:#9e9e9e;opacity:0.2"/><path d="M248.45,352.07a178.35,178.35,0,0,0-66.77-25.21c-17.61-2.79-46.29-5.22-55.17,14.8-4.15,9.36-3.59,21.15-2.15,31a50.13,50.13,0,0,0,12.82,26.93c7,7.64,15.69,13.5,24.54,18.73,10.76,6.36,21.85,12.3,33.15,17.65,26.63,12.6,55.39,20.07,83.49,28.63.92.28,1.32-1.17.4-1.45-22.39-6.81-45.18-12.92-67-21.47-20.36-8-40.88-18.32-58.91-30.74-8.39-5.77-16.32-12.71-21.42-21.64-5.57-9.75-6.81-21.35-6.43-32.41.43-12.44,5.07-22.82,17.35-27.33,10.8-4,22.69-3.44,33.92-2a176.7,176.7,0,0,1,71.41,25.78c.82.51,1.57-.78.75-1.3Z" transform="translate(-27.31 -29.29)"/><path d="M198.27,365.64c26.95,21.26,59.15,33.6,91,45.58.91.34,1.3-1.11.4-1.45-31.55-11.88-63.57-24.11-90.3-45.19-.75-.59-1.82.46-1.06,1.06Z" transform="translate(-27.31 -29.29)"/><path d="M289.23,411.28c1.44,17.69-5.44,34.28-9.43,51.19-.22.94,1.23,1.34,1.45.4,4-17.05,10.93-33.76,9.48-51.59-.07-1-1.57-1-1.5,0Z" transform="translate(-27.31 -29.29)"/><path d="M285.69,445c4.58,1.95,9.53,3.6,13.87,6.05,5.41,3,7.4,8.5,10.12,13.73a263.61,263.61,0,0,0,17.85,29.35c.55.78,1.85,0,1.3-.76a264.2,264.2,0,0,1-19.54-32.66c-1.87-3.7-3.61-7.35-7.09-9.79-4.62-3.25-10.58-5-15.75-7.21-.88-.38-1.65.92-.76,1.29Z" transform="translate(-27.31 -29.29)"/><path d="M289.54,429.13c6.46,1.87,12.93,3.72,19.39,5.61,5.26,1.53,7.39,4.59,9.2,9.53l3.66,10c2.43,6.65,4.88,13.29,7.3,19.95,1.22,3.34,8.18,20.83.65,20.84a.75.75,0,0,0,0,1.5c12.66,0-3.15-33.52-4.85-38.16l-5.31-14.51c-1-2.76-1.84-6.22-4.24-8.17-2.73-2.23-7.13-2.73-10.42-3.68l-15-4.34a.75.75,0,0,0-.4,1.45Z" transform="translate(-27.31 -29.29)"/></g><g id="leg_left" data-name="leg left"><path d="M309.7,447.57l-21,35.22a116.28,116.28,0,0,0,9.51,6.79,87,87,0,0,0,29.56,12.21c3,.6,8.85,1.71,9.6,0,.35-.76-.44-1.94-4.06-5.62-5.48-5.58-9.38-8.77-9.38-8.77-4.66-3.81-8.63-7-11.66-9.4l11.25-26.13Z" transform="translate(-27.31 -29.29)"/><path d="M293.37,441c1.32-3.06,3.16-7.16,5.54-11.91a240,240,0,0,1,15.59-26.61c10-14.93,17.82-26.72,31.24-39.76a132.07,132.07,0,0,1,27.59-20.94,77.74,77.74,0,0,1,26.38-8.16c4.21-.48,8.57-.57,11.67,2.21,2.88,2.58,3.31,6.41,3.44,7.59.6,5.41-2,9.63-4.18,13.41-10.27,17.53-2.38,7.55-10.85,19.89S385.54,396,372.4,413c-10.28,13.28-13.76,18.15-17.7,24.82a173,173,0,0,0-9.29,18.05,54.51,54.51,0,0,1-6,1,57.74,57.74,0,0,1-23.84-2.29A56.36,56.36,0,0,1,293.37,441Z" transform="translate(-27.31 -29.29)" style="fill:#fff"/><path d="M411.38,335.87c-2.67,5.46-6.31,12.54-11,20.62a345,345,0,0,1-31.21,45.36,343.73,343.73,0,0,1-53.61,52.7,57.36,57.36,0,0,0,29.81,1.27c2.3-4.69,5.85-11.54,10.74-19.5,6.7-10.92,12.74-18.75,19.73-27.76,12.25-15.81,13.83-16.05,21.64-27.4,8.61-12.53,2.32-5.89,13.12-24.29,2-3.35,4.93-8.28,3.88-14.16A15.86,15.86,0,0,0,411.38,335.87Z" transform="translate(-27.31 -29.29)" style="fill:#9e9e9e;opacity:0.15"/><path d="M294.38,439.83A328,328,0,0,1,327.72,385c11.7-15.54,25.21-30.34,42.1-40.32,8.82-5.21,19.13-9.75,29.49-10.2,7.27-.32,16,1.71,14.5,10.81-.84,5.21-3.34,10.43-5.6,15.15-7.77,16.27-19.16,30.44-30.34,44.46-12.27,15.39-24.58,31-32.48,49.15-.38.87.91,1.64,1.29.76,16-36.8,50.07-62.16,65.37-99.32,2.53-6.14,6.83-16.25-.87-20.56-8.47-4.74-20.9-1.09-29.18,2.15-18.52,7.22-33.74,20.78-46.47,35.74-17,20-31,42.69-42.45,66.3-.42.87.88,1.63,1.3.76Z" transform="translate(-27.31 -29.29)"/><path d="M294.8,443.89a59.48,59.48,0,0,0,50.81,12.66c.94-.2.54-1.65-.4-1.45a57.87,57.87,0,0,1-49.35-12.27c-.73-.62-1.8.44-1.06,1.06Z" transform="translate(-27.31 -29.29)"/><path d="M307,451l-16.11,25.31c-.52.82.78,1.57,1.3.76l16.1-25.32c.52-.81-.77-1.57-1.29-.75Z" transform="translate(-27.31 -29.29)"/><path d="M320,456.56l-6.31,13.19c-1,2.14-3.68,5.74-3.11,8.35.65,3,5,5.6,7.15,7.43,3.52,3,7.2,5.87,11,8.53,1,.71,2,1.39,3,2.07,2.13,1.42,2.52.86,1.51,3.8s-.91,2.3-3.36,1.67c-1.14-.3-2.28-.61-3.41-.93A130.08,130.08,0,0,1,299,489.19a37.06,37.06,0,0,1-6.07-3.63c-1.62-1.39-3-3.25-2.66-5.19.18-1.24,1.7-3.33,2.24-4.38.44-.86-.85-1.62-1.29-.76-1.35,2.63-4.66,6.29-2.5,9.22,1.22,1.65,4,2.79,5.7,3.81q4.16,2.52,8.5,4.73a131.75,131.75,0,0,0,15.6,6.7c4.64,1.64,11.07,4.69,16.08,4.29,2-.15,3.76-1.15,3.66-3.35-.15-3.44-5.8-5.79-8-7.33q-4.81-3.35-9.34-7.07c-1.95-1.61-6.51-4.34-7.54-6.67s.21-6.09,1.24-8.23l2-4.12,4.74-9.89c.41-.87-.88-1.63-1.3-.76Z" transform="translate(-27.31 -29.29)"/></g><g id="arm_right" data-name="arm right"><path d="M224.7,205.28c-1.07,1.63-2.62,4.09-4.33,7.19-6.48,11.77-8.62,20.88-12.34,35.8-8.63,34.55-10.69,39.86-11.66,54-.38,5.49-.43,10-.42,13a60.14,60.14,0,0,0,35.17-19.77q4.17-9.13,8.76-18.55,3.74-7.65,7.51-15a108.18,108.18,0,0,1-22.69-56.72Z" transform="translate(-27.31 -29.29)" style="fill:#fff"/><path d="M232.36,236.26a74.65,74.65,0,0,1,1.4,11.91c.85,24.35-10.66,43.38-17.74,53l15.1-5.69q8.13-16.75,16.27-33.52Z" transform="translate(-27.31 -29.29)" style="fill:#9e9e9e;opacity:0.21"/><path d="M224.05,204.9c-10,14.92-14,32.56-18.44,49.7-4.91,19.06-9.42,38.24-11.06,57.89-.08,1,1.42,1,1.5,0,1.63-19.52,6.13-38.56,11-57.49,4.38-17,8.39-34.53,18.29-49.34.54-.8-.76-1.56-1.3-.76Z" transform="translate(-27.31 -29.29)"/><path d="M243.22,269.55A201.28,201.28,0,0,0,224,313.42a.75.75,0,0,0,1.44.4,199.7,199.7,0,0,1,19.05-43.51.75.75,0,0,0-1.3-.76Z" transform="translate(-27.31 -29.29)"/></g><g id="torso"><path d="M224.7,205.28c.18,9.09.66,21.69,2,36.68,1.72,19.72,3.11,35.66,8.06,55a235.11,235.11,0,0,0,17.6,46.93,60.33,60.33,0,0,0,34.1,16.5c26.48,3.25,45.17-13.16,48-15.77a500.2,500.2,0,0,0,14.66-95c1-17.34,1-33.65.39-48.79a101.09,101.09,0,0,0-56.12-19.78C256.2,179.79,230.84,200.08,224.7,205.28Z" transform="translate(-27.31 -29.29)" style="fill:#461eb8"/></g><g id="arm_left" data-name="arm left"><path d="M347.13,198.57a86.65,86.65,0,0,0-9.35,17.59,89.75,89.75,0,0,0-5.14,44.33,210,210,0,0,0,3.75,21c2.18,9.38,4.53,16.54,6.59,22.79,2,6,3.86,11.08,5.3,14.82a35.64,35.64,0,0,0,6.05,4.75c5.07,3.15,10.39,4.66,18.91,5.59,9.13,1,20.92,2.28,35.76-1.53,11.3-2.89,17.3-6.93,18.83-8a50,50,0,0,0,8.19-7.15l-14.23-5.37a50.21,50.21,0,0,1-12.62-1.34c-7.4-1.76-10.27-4.26-17.44-5.9A47.77,47.77,0,0,0,378,299.1c-.62-8-1.73-19.47-3.82-33.31-2.4-15.93-3.67-24.09-6.92-33.2A105.94,105.94,0,0,0,347.13,198.57Z" transform="translate(-27.31 -29.29)" style="fill:#fff"/><path d="M344.51,202.62A158.8,158.8,0,0,0,340.44,234c-.34,11.6-.72,24.6,3.92,39.1,2.94,9.19,10.4,32.48,33.55,44.18,22.19,11.2,44.4,4.48,49.92,2.63a81,81,0,0,1-34,10.4,81.86,81.86,0,0,1-42.9-8.68,137.71,137.71,0,0,1-7.13-14.85,145.91,145.91,0,0,1-8-27.87c-3.11-16.18-5.46-28.44-3-44A92,92,0,0,1,344.51,202.62Z" transform="translate(-27.31 -29.29)" style="fill:#9e9e9e;opacity:0.22"/><path d="M346.6,199.1c27.23,25.5,25.62,65.55,30.82,99.59.15.95,1.59.55,1.45-.4C373.63,264,375.12,223.76,347.66,198c-.7-.66-1.76.4-1.06,1.06Z" transform="translate(-27.31 -29.29)"/><path d="M331.89,260.49a221.35,221.35,0,0,0,15.88,58.12c.37.88,1.67.12,1.29-.76a218.39,218.39,0,0,1-15.67-57.36c-.13-.94-1.63-.95-1.5,0Z" transform="translate(-27.31 -29.29)"/><path d="M374.28,301.81c16.68-5.47,32.71,9.72,49.32,6.39.94-.19.54-1.64-.4-1.45-9.08,1.83-19.72-3-28.46-5.29-6.94-1.83-13.84-3.4-20.86-1.1-.91.3-.52,1.75.4,1.45Z" transform="translate(-27.31 -29.29)"/><path d="M347.75,319.66c9.49,10.09,27,11.71,40,11.62a93.69,93.69,0,0,0,44.43-11.6c.85-.47.09-1.76-.75-1.3a92.13,92.13,0,0,1-42,11.38c-13,.32-31.16-1.07-40.65-11.16-.66-.71-1.72.36-1.06,1.06Z" transform="translate(-27.31 -29.29)"/></g><g id="guitar"><path d="M369,299q27-7.5,55.07-16,26.33-8,51.44-16.25a20.1,20.1,0,0,1,0-8.55c1.86-8.34,8.63-12.79,10.34-13.85l-2.82-8,6.57-2,2.67,7.32a22.25,22.25,0,0,1,7.29,3.54c2.25,1.69,3,3,5.07,3.42,2.41.48,4.56-.75,5.8-1.46,4.36-2.5,4.43-5.75,9.07-9.44a22.12,22.12,0,0,1,4.24-2.63l-1.65-8.9,5.47-1.82,2.55,8.21a14.44,14.44,0,0,1,6.9-.09,14.91,14.91,0,0,1,8.43,5.81c1.06,1.36,4.44,5.72,3.44,11.59a14.56,14.56,0,0,1-5.3,8.71l.66,6.37a6.73,6.73,0,0,1-5.05,1.37,6.52,6.52,0,0,1-5.19-5,33.1,33.1,0,0,0-8.52,2.87c-3.28,1.64-5.52,2.76-7.13,5.18-1.83,2.73-1,4.28-2.76,7.47a14.81,14.81,0,0,1-4.93,5.1c1.19,1.79,2.37,3.58,3.56,5.36l-6.7,3.22c-.27-1.95-1-4.7-3.15-5.92-2.38-1.33-4.07.53-8.89,0-3.42-.37-6.15-1.7-9.26-3.22a42.06,42.06,0,0,1-4.44-2.51q-23.47,9-47.25,18.5Q405.87,308.76,378,320.25,373.46,309.62,369,299Z" transform="translate(-27.31 -29.29)" style="fill:#fff"/><path d="M374.18,311.33,485.87,272c5.39,5.85,9.48,6.83,12.27,6.58,8.18-.76,8.39-12.43,20-17.91,8.84-4.19,14.16,0,20.93-4.89,5.32-3.87,7.2-10.26,7.94-15.27.64.89,4.1,5.83,2.45,11.41-1.29,4.36-5,6.65-6.72,7.71-8,4.81-13.24.08-19.07,4.3-4.44,3.22-2.24,6.58-8.06,12.87-1.41,1.53-5.25,5.68-11,7.36-10.51,3.08-20.34-4.15-21.78-5.24l-103.62,40.6Z" transform="translate(-27.31 -29.29)" style="fill:#9e9e9e;opacity:0.19"/><path d="M369.15,299.7q55.46-15.79,110.55-32.79c.92-.29.52-1.74-.4-1.45q-55.1,17-110.55,32.79a.75.75,0,0,0,.4,1.45Z" transform="translate(-27.31 -29.29)"/><path d="M378.16,321q54.06-22.61,109.08-42.81c.9-.33.51-1.78-.4-1.44q-55,20.2-109.08,42.8c-.88.37-.49,1.82.4,1.45Z" transform="translate(-27.31 -29.29)"/><path d="M477.71,266c-5.34-9.78,5.27-22.75,15.82-22.45,6.39.18,9,8.4,15.89,5,2.89-1.41,4.57-4.18,6.57-6.55a27.2,27.2,0,0,1,9.63-7.11c5-2.26,10.73-3.08,15.54.15A13.27,13.27,0,0,1,547,247c0,1,1.45,1,1.5,0a14.89,14.89,0,0,0-13.15-15.56c-4.47-.42-8.87,1.21-12.72,3.33-4.61,2.53-7.06,6.05-10.58,9.78-2.52,2.67-4.1,3.41-7.63,2.29a14.29,14.29,0,0,1-5.13-2.8,10.33,10.33,0,0,0-4.2-1.86c-3.82-.68-7.79,1-10.94,3-7.33,4.68-12.33,13.21-7.78,21.55.46.85,1.76.09,1.3-.76Z" transform="translate(-27.31 -29.29)"/><path d="M483.21,279.83c8,9.53,28.94,7.93,33.71-4.25,1.06-2.72,1.44-5.65,3.56-7.85a16.88,16.88,0,0,1,7.67-4c4.25-1.2,8.76-1.45,12.89-3.07,5.69-2.23,10.38-7.83,7.61-14-.39-.88-1.68-.12-1.29.75,4.88,10.95-11.65,13-18.22,14.54-4.43,1.06-9.08,3-11.47,7.09-1.76,3-1.73,6.78-4.14,9.5s-5.82,4.12-9.17,5c-7,1.82-15.2,1.14-20.09-4.71-.62-.74-1.67.33-1.06,1.06Z" transform="translate(-27.31 -29.29)"/><path d="M521,226.93a20.61,20.61,0,0,0,3.12,7.4c.54.79,1.84,0,1.3-.76a19.24,19.24,0,0,1-3-7c-.2-.94-1.64-.54-1.45.4Z" transform="translate(-27.31 -29.29)"/><path d="M522.59,226.72a5.92,5.92,0,0,1,4.94-1.6l-.73-.55,2.55,8.21c.29.91,1.74.52,1.45-.4l-2.55-8.21a.78.78,0,0,0-.72-.55,7.28,7.28,0,0,0-6,2c-.7.67.36,1.73,1.06,1.06Z" transform="translate(-27.31 -29.29)"/><path d="M534.81,262.65c1.2.54,1.22,2.13,1.84,3.16a3.74,3.74,0,0,0,2.14,1.64,4.32,4.32,0,0,0,4.92-1.65c.54-.8-.76-1.56-1.29-.76a2.77,2.77,0,0,1-4.57-.16c-.72-1.31-.75-2.84-2.29-3.53-.87-.39-1.63.9-.75,1.3Z" transform="translate(-27.31 -29.29)"/><path d="M541.94,259.67a7.58,7.58,0,0,0,1.74,5.83c.61.75,1.67-.32,1.06-1.06a6.17,6.17,0,0,1-1.3-4.77c.12-1-1.38-.95-1.5,0Z" transform="translate(-27.31 -29.29)"/><path d="M482.84,237.39a19.9,19.9,0,0,0,2.34,7.31c.46.84,1.76.09,1.29-.76a18.09,18.09,0,0,1-2.13-6.55c-.12-.94-1.62-.95-1.5,0Z" transform="translate(-27.31 -29.29)"/><path d="M483.38,237a11.33,11.33,0,0,1,6.19-1.87l-.75-.75a14,14,0,0,0,2.77,7.7c.57.76,1.87,0,1.29-.76a12.52,12.52,0,0,1-2.56-6.94.77.77,0,0,0-.75-.75,12.81,12.81,0,0,0-6.95,2.08c-.8.52-.05,1.82.76,1.29Z" transform="translate(-27.31 -29.29)"/><path d="M503.81,285.06a10.68,10.68,0,0,0,3.29,6.13c.7.66,1.76-.4,1.06-1.06a9.39,9.39,0,0,1-2.9-5.47c-.15-1-1.6-.55-1.45.4Z" transform="translate(-27.31 -29.29)"/><path d="M509.88,281.94a9.19,9.19,0,0,0,3.25,6.31c.73.62,1.8-.43,1.06-1.06a7.74,7.74,0,0,1-2.81-5.25c-.08-.95-1.58-1-1.5,0Z" transform="translate(-27.31 -29.29)"/><path d="M513.54,286.93a6.53,6.53,0,0,1-4.42,2.45c-.94.1-1,1.6,0,1.5a8.18,8.18,0,0,0,5.72-3.2c.58-.76-.72-1.51-1.3-.75Z" transform="translate(-27.31 -29.29)"/><path d="M313.4,274.88A52.51,52.51,0,0,0,279.92,298a106.32,106.32,0,0,0-16,5,53.71,53.71,0,0,0-33.22-3.61,52.94,52.94,0,0,0-40.57,63.82c6.57,29.13,35.4,47.78,64.39,41.66a52.5,52.5,0,0,0,33.82-23.62,109.64,109.64,0,0,0,11.74-1.82q3.26-.69,6.39-1.55a53.65,53.65,0,0,0,30.75,2.57,53,53,0,0,0,40.57-63.82C371.22,287.41,342.39,268.76,313.4,274.88Z" transform="translate(-27.31 -29.29)" style="fill:#fff;stroke:#000;stroke-miterlimit:10"/><ellipse cx="217.44" cy="323.11" rx="24.74" ry="23.92"/><line x1="210.88" y1="315.66" x2="520.55" y2="213.56" style="fill:none;stroke:#000;stroke-miterlimit:10"/><line x1="230.77" y1="315.66" x2="520.48" y2="217.75" style="fill:none;stroke:#000;stroke-miterlimit:10"/><line x1="235.25" y1="321.3" x2="521.54" y2="220.6" style="fill:none;stroke:#000;stroke-miterlimit:10"/><line x1="235.81" y1="329.19" x2="522.1" y2="222.66" style="fill:none;stroke:#000;stroke-miterlimit:10"/><path d="M306.17,376.24a39,39,0,0,0,9.08.36c3.12-.24,11.32-1.25,22.31-8.77,5.58-3.82,31.28-21.41,33.46-51.6a58.34,58.34,0,0,0-1.84-19.13,49.06,49.06,0,0,1,7.75,16.12c6.19,23.2-5.48,51.87-27.64,63-3.14,1.59-16,8.06-31.32,4.63A41.49,41.49,0,0,1,306.17,376.24Z" transform="translate(-27.31 -29.29)" style="fill:#9e9e9e;opacity:0.21"/><path d="M192.27,332.16a67.11,67.11,0,0,0,4.49,18c1.46,3.59,9,21.46,25.63,31.6,18.4,11.25,43.67,10.4,65.58-.94a51.3,51.3,0,0,1-22.75,20.45c-19.93,8.85-45,3.65-60.74-11.85A53.43,53.43,0,0,1,192.27,332.16Z" transform="translate(-27.31 -29.29)" style="fill:#9e9e9e;opacity:0.24"/></g><g id="hand_left" data-name="hand left"><path d="M423.93,308c4.28-3.92,5.72-7.51,6.19-10.19.59-3.32-.06-6.64,2-11.43,1.31-3,2.2-3.15,2.5-3.13,1.1,0,1.83,2.22,2.31,3.68a25.44,25.44,0,0,1,1,10.26,8.33,8.33,0,0,0,3-2.28c1.86-2.3,1.92-5.13,1.63-9.45-.6-9.27-2.07-14.77-.23-15.73.58-.3,1,.09,3.16-.24a15.47,15.47,0,0,0,2.8-.7,4.89,4.89,0,0,1,3,0c1.66.57,2.57,2.08,3.4,3.92a39,39,0,0,1,3,11.72c.72-6.25,2.57-10.63,4.76-10.8,1.33-.1,2.53,1.37,2.9,1.82,2,2.49,1.52,5.87,1.17,7.93a22.91,22.91,0,0,1-4.09,9.47,97.4,97.4,0,0,1-15.64,17.24c-6.26,5.34-11,8.23-16.68,9.52-2.57.58-4.52.66-5.87-.43C422,317.38,421.91,313,423.93,308Z" transform="translate(-27.31 -29.29)" style="fill:#f9f9f9"/><path d="M463.72,274a43.67,43.67,0,0,1-3.55,13.92c-1.45,3.27-3.7,7.23-8.74,12.83a98.72,98.72,0,0,1-24.28,19.37,46.41,46.41,0,0,0,10.26-3.33c10.37-4.74,16.29-12.08,20-16.75a56.18,56.18,0,0,0,6.89-11.55c3.21-7.17,2.69-10,1.84-11.72A7.88,7.88,0,0,0,463.72,274Z" transform="translate(-27.31 -29.29)" style="fill:#9e9e9e;opacity:0.26"/><path d="M424.46,308.51c3.45-3.06,6.61-6,6.41-10.72-.13-3.27-.27-8.65,2.08-11.4l.75-1.32a3.75,3.75,0,0,1,2.85,3.86c.71,2.23.43,4.88.26,7.17-.07,1,1.43,1,1.5,0,.13-1.75.19-16.71-5.06-13.05-2.4,1.68-3.61,7.61-3.88,10.2-.26,2.41.67,5.51-.25,7.76-1,2.47-3.76,4.7-5.72,6.44-.73.64.34,1.7,1.06,1.06Z" transform="translate(-27.31 -29.29)"/><path d="M438.35,297.82c5.44-2.56,5.3-8.41,4.61-13.6a59.66,59.66,0,0,1-.77-8.12,33.83,33.83,0,0,1,.28-4.71q4.56-1.31,5,3.21a31.43,31.43,0,0,1,1.63,14.89c-.11,1,1.39.95,1.5,0a32.19,32.19,0,0,0-2.32-16.87c-.81-1.8-2.34-5.23-5-4.5-3,.83-2.61,5.79-2.6,8,0,6.33,4.34,16.93-3.1,20.42-.87.41-.11,1.7.76,1.3Z" transform="translate(-27.31 -29.29)"/><path d="M448,270.84q4.29-2,5.75,1.72l.67,1.17a20.64,20.64,0,0,1,2,5.49,22.12,22.12,0,0,1-.45,10.9.75.75,0,0,0,1.45.4c1.86-6.65,1.06-14.16-3.11-19.84-2.08-2.85-7.23-4.87-7.8.16-.11,1,1.39,1,1.5,0Z" transform="translate(-27.31 -29.29)"/><path d="M459.16,285.66c.11-1.71,1-10.3,3.27-10.89,3.65-1,2.52,7.23,2.25,8.89-1.06,6.63-4.64,12.38-9.13,17.26-7.44,8.09-17.4,16.79-28.59,18.44-1,.14-.55,1.58.39,1.45,8.27-1.22,15-6.06,21.21-11.31,6.54-5.5,12.91-11.71,16.05-19.83,1.26-3.26,4.45-14.87-.22-17-4.89-2.21-6.56,10.35-6.73,13-.06,1,1.44,1,1.5,0Z" transform="translate(-27.31 -29.29)"/></g><g id="hand_right" data-name="hand right"><path d="M195.29,311.65c.27-1,2.7-9.25,10.81-12.39a17.69,17.69,0,0,1,10.66-.57c9.88,4.2,15.24,9.62,18.31,13.81,4.83,6.57,4.88,11.31,10.12,18.51a46.86,46.86,0,0,0,15,13.18c3-.63,7-1.48,11.83-2.41,3.83-.75,6.68-1.27,10.37-.71,1.49.22,5.39.82,5.61,2.21.39,2.46-10.89,5.32-10.6,6.4.21.81,7.14,1.44,13.37-1.92,2.89-1.56,5.3-3.8,10-4.71,2-.39,3.26-.3,3.89.43,1.12,1.29-.22,4-.47,4.5-1.62,3.28-5,4.61-6.47,5.09a10.37,10.37,0,0,1,6.14.82c2.84,1.38,5.78,4.58,5.27,7.58a5.34,5.34,0,0,1-2,3.06c-5.64,4.8-20.39,4.16-23.07,4,8.37,6,9.63,8.26,9.18,9.23-.69,1.48-5.73.58-6.19.5a20,20,0,0,1-7.68-3.37A100.55,100.55,0,0,0,265,367.45c-5.72-2.4-9.86-2.65-13.46-3.27-12.92-2.22-22.87-9.89-29.19-14.76C205.93,336.74,198.43,320.16,195.29,311.65Z" transform="translate(-27.31 -29.29)" style="fill:#f9f9f9"/><path d="M196.2,311.18a74.53,74.53,0,0,0,11.87,16.4,80.66,80.66,0,0,0,14.3,11.61c14.71,10,25,16.95,40.69,22,12.5,4,18.75,6,26.83,4.09,8.52-2.05,15.89-7.72,17.89-5.5,1,1.08.14,3.49-.62,4.77-.64,1.08-2.29,3.12-9.33,4.3a46,46,0,0,1-14.8,0c8.79,4.27,10.43,6.46,10.14,7.68-.32,1.38-3.2,2-5.12,2-4.36.09-7.34-2.55-10.38-4.68-2.63-1.83-6.77-3.55-15.05-7-10.41-4.32-11.74-2.46-20.24-5.79-8.24-3.23-13.46-7.51-20.89-13.61-6.52-5.35-12-9.83-17.05-17.56A62.19,62.19,0,0,1,196.2,311.18Z" transform="translate(-27.31 -29.29)" style="fill:#9e9e9e;opacity:0.25"/><path d="M194.52,311.85a84.28,84.28,0,0,0,65.42,54.86c.94.15,1.35-1.3.4-1.45A82.77,82.77,0,0,1,196,311.45c-.32-.91-1.77-.52-1.45.4Z" transform="translate(-27.31 -29.29)"/><path d="M223.43,302.62c9.51,6.59,14.54,15.45,19.5,25.62,3.64,7.49,8.56,13.2,16.58,16.07.91.33,1.3-1.12.4-1.45-10.59-3.79-14.14-12.61-18.79-21.88a51.24,51.24,0,0,0-16.94-19.65c-.79-.55-1.54.75-.75,1.29Z" transform="translate(-27.31 -29.29)"/><path d="M259.62,345c6.71-1,13.44-2.25,20.19-2.95.87-.09,8.28-1.11,5.73,3.06-.31.5-2.94.77-3.53,1a19.16,19.16,0,0,0-5.1,3.06c-.76.59.31,1.65,1.06,1.06,2.71-2.14,5.69-2.38,8.55-3.89.81-.43,1.42-.46,1.94-1.47.93-1.8-.3-3.11-1.84-3.85-2.9-1.41-6.66-.53-9.69-.09-5.91.86-11.81,1.76-17.71,2.63-1,.14-.55,1.59.4,1.45Z" transform="translate(-27.31 -29.29)"/><path d="M259.64,367.3c11.43.61,19.17,11.73,30.43,12.33,2,.11,4.39-.45,3.92-3-.21-1.13-1.26-1.76-2.05-2.46-2.53-2.26-5.75-4.06-8.53-6-.79-.56-1.54.74-.76,1.29,1.7,1.19,4.36,2.44,5.69,4,2,.78,2.28,2.27.76,4.48a20.9,20.9,0,0,1-2.67-.68,48.66,48.66,0,0,1-9.85-4.9c-5.36-3.17-10.57-6.26-16.94-6.6-1-.05-1,1.45,0,1.5Z" transform="translate(-27.31 -29.29)"/><path d="M278,351.61c7,.32,12.69-3.26,19-5.75,1-.41,3.18-1.62,4.38-1.46,6.52.89.41,5.16-1.43,6.33a28.38,28.38,0,0,1-10.77,4.15c-.95.14-.55,1.58.4,1.45a28.37,28.37,0,0,0,13.36-5.89c1.47-1.25,4.41-4.35,3.25-6.57-1.61-3.08-7.62-.23-9.59.54-6.16,2.42-11.73,6-18.59,5.7-1,0-1,1.46,0,1.5Z" transform="translate(-27.31 -29.29)"/><path d="M283.29,369.11c7.45,1.93,21.55,2.14,25.93-6a6.49,6.49,0,0,0-1.69-8.12c-3.34-3-8.11-2.44-12.19-1.91-.94.12-1,1.62,0,1.5,3-.39,6.06-.83,8.9.3,7.57,3,3.4,9.39-1.52,11.64-5.71,2.62-13.05,2.65-19,1.11a.75.75,0,0,0-.4,1.44Z" transform="translate(-27.31 -29.29)"/><path d="M286.33,363.51a44.8,44.8,0,0,0,20.34-4c.88-.4.12-1.69-.76-1.29A43.24,43.24,0,0,1,286.33,362c-1,0-1,1.46,0,1.5Z" transform="translate(-27.31 -29.29)"/></g><g id="head"><path d="M255,166.69a14.29,14.29,0,0,0-2.73,7.09c-.28,5.26,3.34,7.27,3.62,14.06,0,.74,0,.26-.59,6.46s-.87,9.49-.78,10.64c.58,7.14,5.9,12.18,6.74,12.95,6.75,6.23,15.28,5.75,17.95,5.6a22.82,22.82,0,0,0,12-3.64c3.52-2.4,5.43-5.64,9.26-12.14a87.28,87.28,0,0,0,5.35-10.81c2.31-5.58,3.47-8.37,3.78-12,.35-4.09-.73-4.84-2.51-13.09a123.64,123.64,0,0,1-2.82-21.21c-.33-8.73.79-9.57-.49-11C297,132.07,263.06,153.9,255,166.69Z" transform="translate(-27.31 -29.29)"/><path d="M269.72,176.29c1.86,1,3.6,2,5.23,3.06l.72,3.07A78.88,78.88,0,0,1,298,162a26,26,0,0,1-1.93-10.4c.11-3.9,1.08-5,.35-6.63-2-4.34-12.92-4.29-20.32-2.4-11.69,3-19,11.67-22.44,16.66q1.26,5.58,2.51,11.17A86.07,86.07,0,0,1,269.72,176.29Z" transform="translate(-27.31 -29.29)" style="fill:#f9f9f9"/><path d="M304.34,144.69a88,88,0,0,0,.12,11.42A89.43,89.43,0,0,0,311,183.36l2.86-.45A75.79,75.79,0,0,1,309,161a7.83,7.83,0,0,0,5.7-.88c3.26-2.09,3.35-6.3,3.38-8,0-2,.11-5.17-2.08-6.71s-5.73-.94-8.64,1.54Z" transform="translate(-27.31 -29.29)" style="fill:#f9f9f9"/><path d="M291.63,149.31c-.32.48-1.12,1.9-.4,6.22a29.19,29.19,0,0,0,3.25,9.26l3.9-2.12a23.87,23.87,0,0,1-1.55-4.08,24.73,24.73,0,0,1-.19-12C295.77,146.66,293,147.12,291.63,149.31Z" transform="translate(-27.31 -29.29)" style="fill:#9e9e9e;opacity:0.25"/><path d="M310.05,145.27a9.62,9.62,0,0,1,2.75,4.7c.91,3.87-.87,8.17-4.5,11.12a5.93,5.93,0,0,0,3.15.67c2.81-.21,4.49-2.59,5.15-3.51,2.59-3.66,1.68-7.86,1.43-9a5.76,5.76,0,0,0-1.51-3.36C314.24,143.78,310.39,145.14,310.05,145.27Z" transform="translate(-27.31 -29.29)" style="fill:#9e9e9e;opacity:0.2"/><path d="M252.89,159.44q1.08,5.64,2.52,11.18a.75.75,0,0,0,1.45-.4q-1.44-5.55-2.52-11.17c-.18-1-1.63-.55-1.45.39Z" transform="translate(-27.31 -29.29)"/><path d="M270.52,161.64q1.8,10.58,4.43,21a.76.76,0,0,0,1.37.18,41.77,41.77,0,0,0,3.63-8.17c.29-.92-1.16-1.31-1.45-.39A39.77,39.77,0,0,1,275,182l1.38.18q-2.64-10.41-4.43-21c-.16-1-1.61-.55-1.45.4Z" transform="translate(-27.31 -29.29)"/><path d="M260.12,164.89c.74,2.42,2.81,4.54,5.49,4.45a4.69,4.69,0,0,0,4.47-4.39c.06-1-1.44-1-1.5,0a3.18,3.18,0,0,1-3.41,2.88,4.39,4.39,0,0,1-3.6-3.34c-.28-.92-1.73-.53-1.45.4Z" transform="translate(-27.31 -29.29)"/><path d="M279.93,162.72c4.59,4.91,11.64.63,11.7-5.39a.75.75,0,0,0-1.5,0c0,4.74-5.47,8.26-9.14,4.33-.66-.7-1.72.36-1.06,1.06Z" transform="translate(-27.31 -29.29)"/><path d="M254.38,166.31a15.87,15.87,0,0,0-2.69,11.6c1,6,5.42,10.18,5.55,16.64a.75.75,0,0,0,1.5,0A22.16,22.16,0,0,0,255.82,184c-3.11-5.77-3.93-11.26-.14-17,.53-.8-.76-1.56-1.3-.76Z" transform="translate(-27.31 -29.29)"/><path d="M254.91,186.08c1,6.54-2.12,12.8-1,19.39A23.44,23.44,0,0,0,260.26,218c7,7.09,17.77,8.14,26.51,3.92.87-.42.11-1.71-.76-1.29-10.08,4.86-22.41,1.77-28.08-8.17-2.82-4.94-3.22-10.12-2.31-15.62.62-3.84,1.35-7.23.74-11.11-.15-1-1.6-.55-1.45.4Z" transform="translate(-27.31 -29.29)"/><path d="M255.37,171.43c7.05.89,12.95,4.74,18.72,8.62.8.54,1.56-.75.76-1.29-6-4.07-12.12-7.9-19.48-8.83-1-.13-1,1.38,0,1.5Z" transform="translate(-27.31 -29.29)"/><path d="M278.8,178.86c5-6.77,13-11.23,19.75-16.08.78-.56,0-1.86-.75-1.3-7,5-15.11,9.63-20.3,16.62-.57.78.73,1.52,1.3.76Z" transform="translate(-27.31 -29.29)"/><path d="M298.68,161.82a26.5,26.5,0,0,1-.88-16.8.75.75,0,0,0-1.44-.4,27.92,27.92,0,0,0,.87,17.6c.35.89,1.8.5,1.45-.4Z" transform="translate(-27.31 -29.29)"/><path d="M303.68,140.57c-.24,9.77-.45,19.7,2.06,29.23,1.25,4.75,3.18,9.34,3.15,14.33a23.89,23.89,0,0,1-6.58,16c-.66.71.4,1.77,1.06,1.06a25.52,25.52,0,0,0,6.18-23.66c-1.43-6-3.42-11.59-4.06-17.81a149.7,149.7,0,0,1-.31-19.18.75.75,0,0,0-1.5,0Z" transform="translate(-27.31 -29.29)"/><path d="M303.18,199.42c-2.67,3.84-3,8.41-5,12.53a15.9,15.9,0,0,1-12.13,8.61c-.95.15-.55,1.59.4,1.45a17.36,17.36,0,0,0,11-6.18c3.72-4.61,3.64-10.86,7-15.65.55-.79-.75-1.54-1.3-.76Z" transform="translate(-27.31 -29.29)"/><path d="M308.06,148a4.87,4.87,0,0,1,6.69-2.57c2.59,1.06,2.83,4.54,2.52,6.85-.49,3.56-2.4,9.29-7.18,8.64-.94-.13-1.35,1.32-.39,1.45,6.79.93,10.4-8.39,8.91-14a6.25,6.25,0,0,0-12-.81c-.38.89,1.07,1.28,1.44.4Z" transform="translate(-27.31 -29.29)"/><path d="M308.25,161a85.06,85.06,0,0,0,4.45,21.16c.31.91,1.76.52,1.44-.39A83.86,83.86,0,0,1,309.75,161c-.08-1-1.58-1-1.5,0Z" transform="translate(-27.31 -29.29)"/><path d="M262.86,160.32a7.72,7.72,0,0,1,4.19-1.1.75.75,0,0,0,0-1.5,9.19,9.19,0,0,0-4.94,1.3.75.75,0,0,0,.75,1.3Z" transform="translate(-27.31 -29.29)"/><path d="M280.5,155.74a10.39,10.39,0,0,1,6.94-1c.95.19,1.35-1.25.4-1.44a12,12,0,0,0-8.09,1.15c-.86.45-.1,1.74.75,1.3Z" transform="translate(-27.31 -29.29)"/><path d="M248.87,143.34q-18.74,17.17-16,21.82,4.82,8.25,77.25-22.93c.33-1.36,3.87-16.64-6.68-28.49-8.71-9.78-22.38-12-33-8.46C256.07,110.13,246.51,126,248.87,143.34Z" transform="translate(-27.31 -29.29)" style="fill:#ec615b"/></g></g></svg>